<?xml version="1.0" encoding="UTF-8" standalone="no"?><svg xmlns="http://www.w3.org/2000/svg" xmlns:xlink="http://www.w3.org/1999/xlink" contentScriptType="application/ecmascript" contentStyleType="text/css" height="772px" preserveAspectRatio="none" style="width:640px;height:772px;" version="1.1" viewBox="0 0 640 772" width="640px" zoomAndPan="magnify"><defs><filter height="300%" id="f1nh4qauryhmao" width="300%" x="-1" y="-1"><feGaussianBlur result="blurOut" stdDeviation="2.0"/><feColorMatrix in="blurOut" result="blurOut2" type="matrix" values="0 0 0 0 0 0 0 0 0 0 0 0 0 0 0 0 0 0 .4 0"/><feOffset dx="4.0" dy="4.0" in="blurOut2" result="blurOut3"/><feBlend in="SourceGraphic" in2="blurOut3" mode="normal"/></filter></defs><g><line style="stroke:#A80036;stroke-width:1.0;stroke-dasharray:5.0,5.0;" x1="23" x2="23" y1="88.2969" y2="687.8203"/><line style="stroke:#A80036;stroke-width:1.0;stroke-dasharray:5.0,5.0;" x1="253" x2="253" y1="88.2969" y2="687.8203"/><line style="stroke:#A80036;stroke-width:1.0;stroke-dasharray:5.0,5.0;" x1="443.5" x2="443.5" y1="88.2969" y2="687.8203"/><line style="stroke:#A80036;stroke-width:1.0;stroke-dasharray:5.0,5.0;" x1="591.5" x2="591.5" y1="88.2969" y2="687.8203"/><text fill="#000000" font-family="sans-serif" font-size="14" lengthAdjust="spacing" textLength="31" x="5" y="84.9951">User</text><ellipse cx="23.5" cy="15" fill="#FEFECE" filter="url(#f1nh4qauryhmao)" rx="8" ry="8" style="stroke:#A80036;stroke-width:2.0;"/><path d="M23.5,23 L23.5,50 M10.5,31 L36.5,31 M23.5,50 L10.5,65 M23.5,50 L36.5,65 " fill="none" filter="url(#f1nh4qauryhmao)" style="stroke:#A80036;stroke-width:2.0;"/><text fill="#000000" font-family="sans-serif" font-size="14" lengthAdjust="spacing" textLength="31" x="5" y="699.8154">User</text><ellipse cx="23.5" cy="713.1172" fill="#FEFECE" filter="url(#f1nh4qauryhmao)" rx="8" ry="8" style="stroke:#A80036;stroke-width:2.0;"/><path d="M23.5,721.1172 L23.5,748.1172 M10.5,729.1172 L36.5,729.1172 M23.5,748.1172 L10.5,763.1172 M23.5,748.1172 L36.5,763.1172 " fill="none" filter="url(#f1nh4qauryhmao)" style="stroke:#A80036;stroke-width:2.0;"/><rect fill="#FEFECE" filter="url(#f1nh4qauryhmao)" height="30.2969" style="stroke:#A80036;stroke-width:1.5;" width="169" x="167" y="53"/><text fill="#000000" font-family="sans-serif" font-size="14" lengthAdjust="spacing" textLength="155" x="174" y="72.9951">getConsoleCommand</text><rect fill="#FEFECE" filter="url(#f1nh4qauryhmao)" height="30.2969" style="stroke:#A80036;stroke-width:1.5;" width="169" x="167" y="686.8203"/><text fill="#000000" font-family="sans-serif" font-size="14" lengthAdjust="spacing" textLength="155" x="174" y="706.8154">getConsoleCommand</text><rect fill="#FEFECE" filter="url(#f1nh4qauryhmao)" height="30.2969" style="stroke:#A80036;stroke-width:1.5;" width="108" x="387.5" y="53"/><text fill="#000000" font-family="sans-serif" font-size="14" lengthAdjust="spacing" textLength="94" x="394.5" y="72.9951">changeTimer</text><rect fill="#FEFECE" filter="url(#f1nh4qauryhmao)" height="30.2969" style="stroke:#A80036;stroke-width:1.5;" width="108" x="387.5" y="686.8203"/><text fill="#000000" font-family="sans-serif" font-size="14" lengthAdjust="spacing" textLength="94" x="394.5" y="706.8154">changeTimer</text><rect fill="#FEFECE" filter="url(#f1nh4qauryhmao)" height="30.2969" style="stroke:#A80036;stroke-width:1.5;" width="70" x="554.5" y="53"/><text fill="#000000" font-family="sans-serif" font-size="14" lengthAdjust="spacing" textLength="56" x="561.5" y="72.9951">getStat</text><rect fill="#FEFECE" filter="url(#f1nh4qauryhmao)" height="30.2969" style="stroke:#A80036;stroke-width:1.5;" width="70" x="554.5" y="686.8203"/><text fill="#000000" font-family="sans-serif" font-size="14" lengthAdjust="spacing" textLength="56" x="561.5" y="706.8154">getStat</text><polygon fill="#A80036" points="241.5,115.4297,251.5,119.4297,241.5,123.4297,245.5,119.4297" style="stroke:#A80036;stroke-width:1.0;"/><line style="stroke:#A80036;stroke-width:1.0;" x1="23.5" x2="247.5" y1="119.4297" y2="119.4297"/><text fill="#000000" font-family="sans-serif" font-size="13" lengthAdjust="spacing" textLength="20" x="30.5" y="114.3638">set</text><polygon fill="#A80036" points="431.5,144.5625,441.5,148.5625,431.5,152.5625,435.5,148.5625" style="stroke:#A80036;stroke-width:1.0;"/><line style="stroke:#A80036;stroke-width:1.0;" x1="253.5" x2="437.5" y1="148.5625" y2="148.5625"/><text fill="#000000" font-family="sans-serif" font-size="13" lengthAdjust="spacing" textLength="166" x="260.5" y="143.4966">setOptimalTime / setTime</text><polygon fill="#A80036" points="579.5,173.6953,589.5,177.6953,579.5,181.6953,583.5,177.6953" style="stroke:#A80036;stroke-width:1.0;"/><line style="stroke:#A80036;stroke-width:1.0;" x1="443.5" x2="585.5" y1="177.6953" y2="177.6953"/><text fill="#000000" font-family="sans-serif" font-size="13" lengthAdjust="spacing" textLength="103" x="450.5" y="172.6294">getOptimalTime</text><line style="stroke:#A80036;stroke-width:1.0;" x1="591.5" x2="633.5" y1="206.8281" y2="206.8281"/><line style="stroke:#A80036;stroke-width:1.0;" x1="633.5" x2="633.5" y1="206.8281" y2="219.8281"/><line style="stroke:#A80036;stroke-width:1.0;" x1="592.5" x2="633.5" y1="219.8281" y2="219.8281"/><polygon fill="#A80036" points="602.5,215.8281,592.5,219.8281,602.5,223.8281,598.5,219.8281" style="stroke:#A80036;stroke-width:1.0;"/><text fill="#000000" font-family="sans-serif" font-size="13" lengthAdjust="spacing" textLength="29" x="598.5" y="201.7622">read</text><polygon fill="#A80036" points="454.5,244.9609,444.5,248.9609,454.5,252.9609,450.5,248.9609" style="stroke:#A80036;stroke-width:1.0;"/><line style="stroke:#A80036;stroke-width:1.0;" x1="448.5" x2="590.5" y1="248.9609" y2="248.9609"/><text fill="#000000" font-family="sans-serif" font-size="13" lengthAdjust="spacing" textLength="124" x="460.5" y="243.895">return optimal time</text><polygon fill="#A80036" points="264.5,274.0938,254.5,278.0938,264.5,282.0938,260.5,278.0938" style="stroke:#A80036;stroke-width:1.0;"/><line style="stroke:#A80036;stroke-width:1.0;" x1="258.5" x2="442.5" y1="278.0938" y2="278.0938"/><text fill="#000000" font-family="sans-serif" font-size="13" lengthAdjust="spacing" textLength="37" x="270.5" y="273.0278">ready</text><polygon fill="#A80036" points="34.5,303.2266,24.5,307.2266,34.5,311.2266,30.5,307.2266" style="stroke:#A80036;stroke-width:1.0;"/><line style="stroke:#A80036;stroke-width:1.0;" x1="28.5" x2="252.5" y1="307.2266" y2="307.2266"/><text fill="#000000" font-family="sans-serif" font-size="13" lengthAdjust="spacing" textLength="37" x="40.5" y="302.1606">ready</text><polygon fill="#A80036" points="241.5,332.3594,251.5,336.3594,241.5,340.3594,245.5,336.3594" style="stroke:#A80036;stroke-width:1.0;"/><line style="stroke:#A80036;stroke-width:1.0;" x1="23.5" x2="247.5" y1="336.3594" y2="336.3594"/><text fill="#000000" font-family="sans-serif" font-size="13" lengthAdjust="spacing" textLength="21" x="30.5" y="331.2935">run</text><polygon fill="#A80036" points="431.5,361.4922,441.5,365.4922,431.5,369.4922,435.5,365.4922" style="stroke:#A80036;stroke-width:1.0;"/><line style="stroke:#A80036;stroke-width:1.0;" x1="253.5" x2="437.5" y1="365.4922" y2="365.4922"/><text fill="#000000" font-family="sans-serif" font-size="13" lengthAdjust="spacing" textLength="65" x="260.5" y="360.4263">start work</text><polygon fill="#A80036" points="264.5,390.625,254.5,394.625,264.5,398.625,260.5,394.625" style="stroke:#A80036;stroke-width:1.0;"/><line style="stroke:#A80036;stroke-width:1.0;" x1="258.5" x2="442.5" y1="394.625" y2="394.625"/><text fill="#000000" font-family="sans-serif" font-size="13" lengthAdjust="spacing" textLength="63" x="270.5" y="389.5591">time is up</text><polygon fill="#A80036" points="34.5,419.7578,24.5,423.7578,34.5,427.7578,30.5,423.7578" style="stroke:#A80036;stroke-width:1.0;"/><line style="stroke:#A80036;stroke-width:1.0;" x1="28.5" x2="252.5" y1="423.7578" y2="423.7578"/><text fill="#000000" font-family="sans-serif" font-size="13" lengthAdjust="spacing" textLength="206" x="40.5" y="418.6919">work-time is up. Ready for rest?</text><polygon fill="#A80036" points="241.5,448.8906,251.5,452.8906,241.5,456.8906,245.5,452.8906" style="stroke:#A80036;stroke-width:1.0;"/><line style="stroke:#A80036;stroke-width:1.0;" x1="23.5" x2="247.5" y1="452.8906" y2="452.8906"/><text fill="#000000" font-family="sans-serif" font-size="13" lengthAdjust="spacing" textLength="20" x="30.5" y="447.8247">y/n</text><polygon fill="#A80036" points="34.5,478.0234,24.5,482.0234,34.5,486.0234,30.5,482.0234" style="stroke:#A80036;stroke-width:1.0;"/><line style="stroke:#A80036;stroke-width:1.0;" x1="28.5" x2="252.5" y1="482.0234" y2="482.0234"/><text fill="#000000" font-family="sans-serif" font-size="13" lengthAdjust="spacing" textLength="165" x="40.5" y="476.9575">have you complited task?</text><polygon fill="#A80036" points="241.5,507.1563,251.5,511.1563,241.5,515.1563,245.5,511.1563" style="stroke:#A80036;stroke-width:1.0;"/><line style="stroke:#A80036;stroke-width:1.0;" x1="23.5" x2="247.5" y1="511.1563" y2="511.1563"/><text fill="#000000" font-family="sans-serif" font-size="13" lengthAdjust="spacing" textLength="20" x="30.5" y="506.0903">y/n</text><polygon fill="#A80036" points="579.5,536.2891,589.5,540.2891,579.5,544.2891,583.5,540.2891" style="stroke:#A80036;stroke-width:1.0;"/><line style="stroke:#A80036;stroke-width:1.0;stroke-dasharray:2.0,2.0;" x1="253.5" x2="585.5" y1="540.2891" y2="540.2891"/><text fill="#000000" font-family="sans-serif" font-size="13" lengthAdjust="spacing" textLength="45" x="260.5" y="535.2231">update</text><line style="stroke:#A80036;stroke-width:1.0;stroke-dasharray:2.0,2.0;" x1="591.5" x2="633.5" y1="569.4219" y2="569.4219"/><line style="stroke:#A80036;stroke-width:1.0;stroke-dasharray:2.0,2.0;" x1="633.5" x2="633.5" y1="569.4219" y2="582.4219"/><line style="stroke:#A80036;stroke-width:1.0;stroke-dasharray:2.0,2.0;" x1="592.5" x2="633.5" y1="582.4219" y2="582.4219"/><polygon fill="#A80036" points="602.5,578.4219,592.5,582.4219,602.5,586.4219,598.5,582.4219" style="stroke:#A80036;stroke-width:1.0;"/><text fill="#000000" font-family="sans-serif" font-size="13" lengthAdjust="spacing" textLength="31" x="598.5" y="564.356">save</text><polygon fill="#A80036" points="431.5,607.5547,441.5,611.5547,431.5,615.5547,435.5,611.5547" style="stroke:#A80036;stroke-width:1.0;"/><line style="stroke:#A80036;stroke-width:1.0;" x1="253.5" x2="437.5" y1="611.5547" y2="611.5547"/><text fill="#000000" font-family="sans-serif" font-size="13" lengthAdjust="spacing" textLength="59" x="260.5" y="606.4888">start rest</text><polygon fill="#A80036" points="264.5,636.6875,254.5,640.6875,264.5,644.6875,260.5,640.6875" style="stroke:#A80036;stroke-width:1.0;"/><line style="stroke:#A80036;stroke-width:1.0;" x1="258.5" x2="442.5" y1="640.6875" y2="640.6875"/><text fill="#000000" font-family="sans-serif" font-size="13" lengthAdjust="spacing" textLength="63" x="270.5" y="635.6216">time is up</text><polygon fill="#A80036" points="34.5,665.8203,24.5,669.8203,34.5,673.8203,30.5,669.8203" style="stroke:#A80036;stroke-width:1.0;"/><line style="stroke:#A80036;stroke-width:1.0;" x1="28.5" x2="252.5" y1="669.8203" y2="669.8203"/><text fill="#000000" font-family="sans-serif" font-size="13" lengthAdjust="spacing" textLength="206" x="40.5" y="664.7544">rest-time is up. Ready for work?</text><!--MD5=[32fb1232efa562612727a1c7f060771b]
@startuml
actor User

User -> getConsoleCommand: set

getConsoleCommand -> changeTimer: setOptimalTime / setTime
changeTimer -> getStat: getOptimalTime
getStat -> getStat: read
changeTimer <- getStat: return optimal time

getConsoleCommand <- changeTimer: ready
User <- getConsoleCommand: ready

User -> getConsoleCommand: run
getConsoleCommand -> changeTimer: start work
getConsoleCommand <- changeTimer: time is up
User <- getConsoleCommand: work-time is up. Ready for rest?
User -> getConsoleCommand: y/n

User <- getConsoleCommand: have you complited task?
User -> getConsoleCommand: y/n
getConsoleCommand - -> getStat: update
getStat - -> getStat: save

getConsoleCommand -> changeTimer: start rest
getConsoleCommand <- changeTimer: time is up
User <- getConsoleCommand: rest-time is up. Ready for work?
@enduml

PlantUML version 1.2021.4beta1(Unknown compile time)
(GPL source distribution)
Java Runtime: Java(TM) SE Runtime Environment
JVM: Java HotSpot(TM) 64-Bit Server VM
Default Encoding: UTF-8
Language: en
Country: US
--></g></svg>