<?xml version="1.0" encoding="UTF-8" standalone="no"?><svg xmlns="http://www.w3.org/2000/svg" xmlns:xlink="http://www.w3.org/1999/xlink" contentScriptType="application/ecmascript" contentStyleType="text/css" height="713px" preserveAspectRatio="none" style="width:599px;height:713px;" version="1.1" viewBox="0 0 599 713" width="599px" zoomAndPan="magnify"><defs><filter height="300%" id="f1wh5l3lw5ctjb" width="300%" x="-1" y="-1"><feGaussianBlur result="blurOut" stdDeviation="2.0"/><feColorMatrix in="blurOut" result="blurOut2" type="matrix" values="0 0 0 0 0 0 0 0 0 0 0 0 0 0 0 0 0 0 .4 0"/><feOffset dx="4.0" dy="4.0" in="blurOut2" result="blurOut3"/><feBlend in="SourceGraphic" in2="blurOut3" mode="normal"/></filter></defs><g><line style="stroke:#A80036;stroke-width:1.0;stroke-dasharray:5.0,5.0;" x1="23" x2="23" y1="88.2969" y2="629.5547"/><line style="stroke:#A80036;stroke-width:1.0;stroke-dasharray:5.0,5.0;" x1="212" x2="212" y1="88.2969" y2="629.5547"/><line style="stroke:#A80036;stroke-width:1.0;stroke-dasharray:5.0,5.0;" x1="402.5" x2="402.5" y1="88.2969" y2="629.5547"/><line style="stroke:#A80036;stroke-width:1.0;stroke-dasharray:5.0,5.0;" x1="550.5" x2="550.5" y1="88.2969" y2="629.5547"/><text fill="#000000" font-family="sans-serif" font-size="14" lengthAdjust="spacing" textLength="31" x="5" y="84.9951">User</text><ellipse cx="23.5" cy="15" fill="#FEFECE" filter="url(#f1wh5l3lw5ctjb)" rx="8" ry="8" style="stroke:#A80036;stroke-width:2.0;"/><path d="M23.5,23 L23.5,50 M10.5,31 L36.5,31 M23.5,50 L10.5,65 M23.5,50 L36.5,65 " fill="none" filter="url(#f1wh5l3lw5ctjb)" style="stroke:#A80036;stroke-width:2.0;"/><text fill="#000000" font-family="sans-serif" font-size="14" lengthAdjust="spacing" textLength="31" x="5" y="641.5498">User</text><ellipse cx="23.5" cy="654.8516" fill="#FEFECE" filter="url(#f1wh5l3lw5ctjb)" rx="8" ry="8" style="stroke:#A80036;stroke-width:2.0;"/><path d="M23.5,662.8516 L23.5,689.8516 M10.5,670.8516 L36.5,670.8516 M23.5,689.8516 L10.5,704.8516 M23.5,689.8516 L36.5,704.8516 " fill="none" filter="url(#f1wh5l3lw5ctjb)" style="stroke:#A80036;stroke-width:2.0;"/><rect fill="#FEFECE" filter="url(#f1wh5l3lw5ctjb)" height="30.2969" style="stroke:#A80036;stroke-width:1.5;" width="169" x="126" y="53"/><text fill="#000000" font-family="sans-serif" font-size="14" lengthAdjust="spacing" textLength="155" x="133" y="72.9951">getConsoleCommand</text><rect fill="#FEFECE" filter="url(#f1wh5l3lw5ctjb)" height="30.2969" style="stroke:#A80036;stroke-width:1.5;" width="169" x="126" y="628.5547"/><text fill="#000000" font-family="sans-serif" font-size="14" lengthAdjust="spacing" textLength="155" x="133" y="648.5498">getConsoleCommand</text><rect fill="#FEFECE" filter="url(#f1wh5l3lw5ctjb)" height="30.2969" style="stroke:#A80036;stroke-width:1.5;" width="108" x="346.5" y="53"/><text fill="#000000" font-family="sans-serif" font-size="14" lengthAdjust="spacing" textLength="94" x="353.5" y="72.9951">changeTimer</text><rect fill="#FEFECE" filter="url(#f1wh5l3lw5ctjb)" height="30.2969" style="stroke:#A80036;stroke-width:1.5;" width="108" x="346.5" y="628.5547"/><text fill="#000000" font-family="sans-serif" font-size="14" lengthAdjust="spacing" textLength="94" x="353.5" y="648.5498">changeTimer</text><rect fill="#FEFECE" filter="url(#f1wh5l3lw5ctjb)" height="30.2969" style="stroke:#A80036;stroke-width:1.5;" width="70" x="513.5" y="53"/><text fill="#000000" font-family="sans-serif" font-size="14" lengthAdjust="spacing" textLength="56" x="520.5" y="72.9951">getStat</text><rect fill="#FEFECE" filter="url(#f1wh5l3lw5ctjb)" height="30.2969" style="stroke:#A80036;stroke-width:1.5;" width="70" x="513.5" y="628.5547"/><text fill="#000000" font-family="sans-serif" font-size="14" lengthAdjust="spacing" textLength="56" x="520.5" y="648.5498">getStat</text><polygon fill="#A80036" points="200.5,115.4297,210.5,119.4297,200.5,123.4297,204.5,119.4297" style="stroke:#A80036;stroke-width:1.0;"/><line style="stroke:#A80036;stroke-width:1.0;" x1="23.5" x2="206.5" y1="119.4297" y2="119.4297"/><text fill="#000000" font-family="sans-serif" font-size="13" lengthAdjust="spacing" textLength="20" x="30.5" y="114.3638">set</text><polygon fill="#A80036" points="390.5,144.5625,400.5,148.5625,390.5,152.5625,394.5,148.5625" style="stroke:#A80036;stroke-width:1.0;"/><line style="stroke:#A80036;stroke-width:1.0;" x1="212.5" x2="396.5" y1="148.5625" y2="148.5625"/><text fill="#000000" font-family="sans-serif" font-size="13" lengthAdjust="spacing" textLength="166" x="219.5" y="143.4966">setOptimalTime / setTime</text><polygon fill="#A80036" points="538.5,173.6953,548.5,177.6953,538.5,181.6953,542.5,177.6953" style="stroke:#A80036;stroke-width:1.0;"/><line style="stroke:#A80036;stroke-width:1.0;" x1="402.5" x2="544.5" y1="177.6953" y2="177.6953"/><text fill="#000000" font-family="sans-serif" font-size="13" lengthAdjust="spacing" textLength="103" x="409.5" y="172.6294">getOptimalTime</text><line style="stroke:#A80036;stroke-width:1.0;" x1="550.5" x2="592.5" y1="206.8281" y2="206.8281"/><line style="stroke:#A80036;stroke-width:1.0;" x1="592.5" x2="592.5" y1="206.8281" y2="219.8281"/><line style="stroke:#A80036;stroke-width:1.0;" x1="551.5" x2="592.5" y1="219.8281" y2="219.8281"/><polygon fill="#A80036" points="561.5,215.8281,551.5,219.8281,561.5,223.8281,557.5,219.8281" style="stroke:#A80036;stroke-width:1.0;"/><text fill="#000000" font-family="sans-serif" font-size="13" lengthAdjust="spacing" textLength="29" x="557.5" y="201.7622">read</text><polygon fill="#A80036" points="413.5,244.9609,403.5,248.9609,413.5,252.9609,409.5,248.9609" style="stroke:#A80036;stroke-width:1.0;"/><line style="stroke:#A80036;stroke-width:1.0;" x1="407.5" x2="549.5" y1="248.9609" y2="248.9609"/><text fill="#000000" font-family="sans-serif" font-size="13" lengthAdjust="spacing" textLength="124" x="419.5" y="243.895">return optimal time</text><polygon fill="#A80036" points="223.5,274.0938,213.5,278.0938,223.5,282.0938,219.5,278.0938" style="stroke:#A80036;stroke-width:1.0;"/><line style="stroke:#A80036;stroke-width:1.0;" x1="217.5" x2="401.5" y1="278.0938" y2="278.0938"/><text fill="#000000" font-family="sans-serif" font-size="13" lengthAdjust="spacing" textLength="37" x="229.5" y="273.0278">ready</text><polygon fill="#A80036" points="34.5,303.2266,24.5,307.2266,34.5,311.2266,30.5,307.2266" style="stroke:#A80036;stroke-width:1.0;"/><line style="stroke:#A80036;stroke-width:1.0;" x1="28.5" x2="211.5" y1="307.2266" y2="307.2266"/><text fill="#000000" font-family="sans-serif" font-size="13" lengthAdjust="spacing" textLength="37" x="40.5" y="302.1606">ready</text><polygon fill="#A80036" points="200.5,332.3594,210.5,336.3594,200.5,340.3594,204.5,336.3594" style="stroke:#A80036;stroke-width:1.0;"/><line style="stroke:#A80036;stroke-width:1.0;" x1="23.5" x2="206.5" y1="336.3594" y2="336.3594"/><text fill="#000000" font-family="sans-serif" font-size="13" lengthAdjust="spacing" textLength="21" x="30.5" y="331.2935">run</text><polygon fill="#A80036" points="390.5,361.4922,400.5,365.4922,390.5,369.4922,394.5,365.4922" style="stroke:#A80036;stroke-width:1.0;"/><line style="stroke:#A80036;stroke-width:1.0;" x1="212.5" x2="396.5" y1="365.4922" y2="365.4922"/><text fill="#000000" font-family="sans-serif" font-size="13" lengthAdjust="spacing" textLength="65" x="219.5" y="360.4263">start work</text><polygon fill="#A80036" points="200.5,390.625,210.5,394.625,200.5,398.625,204.5,394.625" style="stroke:#A80036;stroke-width:1.0;"/><line style="stroke:#A80036;stroke-width:1.0;" x1="23.5" x2="206.5" y1="394.625" y2="394.625"/><text fill="#000000" font-family="sans-serif" font-size="13" lengthAdjust="spacing" textLength="39" x="30.5" y="389.5591">pause</text><polygon fill="#A80036" points="390.5,419.7578,400.5,423.7578,390.5,427.7578,394.5,423.7578" style="stroke:#A80036;stroke-width:1.0;"/><line style="stroke:#A80036;stroke-width:1.0;" x1="212.5" x2="396.5" y1="423.7578" y2="423.7578"/><text fill="#000000" font-family="sans-serif" font-size="13" lengthAdjust="spacing" textLength="39" x="219.5" y="418.6919">pause</text><polygon fill="#A80036" points="200.5,448.8906,210.5,452.8906,200.5,456.8906,204.5,452.8906" style="stroke:#A80036;stroke-width:1.0;"/><line style="stroke:#A80036;stroke-width:1.0;" x1="23.5" x2="206.5" y1="452.8906" y2="452.8906"/><text fill="#000000" font-family="sans-serif" font-size="13" lengthAdjust="spacing" textLength="28" x="30.5" y="447.8247">stop</text><polygon fill="#A80036" points="390.5,478.0234,400.5,482.0234,390.5,486.0234,394.5,482.0234" style="stroke:#A80036;stroke-width:1.0;"/><line style="stroke:#A80036;stroke-width:1.0;" x1="212.5" x2="396.5" y1="482.0234" y2="482.0234"/><text fill="#000000" font-family="sans-serif" font-size="13" lengthAdjust="spacing" textLength="28" x="219.5" y="476.9575">stop</text><polygon fill="#A80036" points="34.5,507.1563,24.5,511.1563,34.5,515.1563,30.5,511.1563" style="stroke:#A80036;stroke-width:1.0;"/><line style="stroke:#A80036;stroke-width:1.0;" x1="28.5" x2="211.5" y1="511.1563" y2="511.1563"/><text fill="#000000" font-family="sans-serif" font-size="13" lengthAdjust="spacing" textLength="165" x="40.5" y="506.0903">have you complited task?</text><polygon fill="#A80036" points="200.5,536.2891,210.5,540.2891,200.5,544.2891,204.5,540.2891" style="stroke:#A80036;stroke-width:1.0;"/><line style="stroke:#A80036;stroke-width:1.0;" x1="23.5" x2="206.5" y1="540.2891" y2="540.2891"/><text fill="#000000" font-family="sans-serif" font-size="13" lengthAdjust="spacing" textLength="20" x="30.5" y="535.2231">y/n</text><polygon fill="#A80036" points="538.5,565.4219,548.5,569.4219,538.5,573.4219,542.5,569.4219" style="stroke:#A80036;stroke-width:1.0;"/><line style="stroke:#A80036;stroke-width:1.0;stroke-dasharray:2.0,2.0;" x1="212.5" x2="544.5" y1="569.4219" y2="569.4219"/><text fill="#000000" font-family="sans-serif" font-size="13" lengthAdjust="spacing" textLength="45" x="219.5" y="564.356">update</text><line style="stroke:#A80036;stroke-width:1.0;stroke-dasharray:2.0,2.0;" x1="550.5" x2="592.5" y1="598.5547" y2="598.5547"/><line style="stroke:#A80036;stroke-width:1.0;stroke-dasharray:2.0,2.0;" x1="592.5" x2="592.5" y1="598.5547" y2="611.5547"/><line style="stroke:#A80036;stroke-width:1.0;stroke-dasharray:2.0,2.0;" x1="551.5" x2="592.5" y1="611.5547" y2="611.5547"/><polygon fill="#A80036" points="561.5,607.5547,551.5,611.5547,561.5,615.5547,557.5,611.5547" style="stroke:#A80036;stroke-width:1.0;"/><text fill="#000000" font-family="sans-serif" font-size="13" lengthAdjust="spacing" textLength="31" x="557.5" y="593.4888">save</text><!--MD5=[885933be2a3806f97983a9a6fd259b3a]
@startuml
actor User

User -> getConsoleCommand: set

getConsoleCommand -> changeTimer: setOptimalTime / setTime
changeTimer -> getStat: getOptimalTime
getStat -> getStat: read
changeTimer <- getStat: return optimal time

getConsoleCommand <- changeTimer: ready
User <- getConsoleCommand: ready

User -> getConsoleCommand: run
getConsoleCommand -> changeTimer: start work

User -> getConsoleCommand: pause
getConsoleCommand -> changeTimer: pause

User -> getConsoleCommand: stop
getConsoleCommand -> changeTimer: stop

User <- getConsoleCommand: have you complited task?
User -> getConsoleCommand: y/n
getConsoleCommand - -> getStat: update
getStat - -> getStat: save
@enduml

PlantUML version 1.2021.4beta3(Unknown compile time)
(GPL source distribution)
Java Runtime: Java(TM) SE Runtime Environment
JVM: Java HotSpot(TM) 64-Bit Server VM
Default Encoding: UTF-8
Language: en
Country: US
--></g></svg>