<?xml version="1.0" encoding="UTF-8" standalone="no"?><svg xmlns="http://www.w3.org/2000/svg" xmlns:xlink="http://www.w3.org/1999/xlink" contentScriptType="application/ecmascript" contentStyleType="text/css" height="343px" preserveAspectRatio="none" style="width:406px;height:343px;" version="1.1" viewBox="0 0 406 343" width="406px" zoomAndPan="magnify"><defs><filter height="300%" id="f1dxnipluzqxcj" width="300%" x="-1" y="-1"><feGaussianBlur result="blurOut" stdDeviation="2.0"/><feColorMatrix in="blurOut" result="blurOut2" type="matrix" values="0 0 0 0 0 0 0 0 0 0 0 0 0 0 0 0 0 0 .4 0"/><feOffset dx="4.0" dy="4.0" in="blurOut2" result="blurOut3"/><feBlend in="SourceGraphic" in2="blurOut3" mode="normal"/></filter></defs><g><!--MD5=[f5249e79fe4aaac9787ea9c82b55174a]
class getConsoleCommand--><rect codeLine="1" fill="#FEFECE" filter="url(#f1dxnipluzqxcj)" height="73.6094" id="getConsoleCommand" style="stroke:#A80036;stroke-width:1.5;" width="161" x="7" y="32.5"/><ellipse cx="22" cy="48.5" fill="#ADD1B2" rx="11" ry="11" style="stroke:#A80036;stroke-width:1.0;"/><path d="M24.3438,44.1719 C23.4063,43.7344 22.8125,43.5938 21.9375,43.5938 C19.3125,43.5938 17.3125,45.6719 17.3125,48.3906 L17.3125,49.5156 C17.3125,52.0938 19.4219,53.9844 22.3125,53.9844 C23.5313,53.9844 24.6875,53.6875 25.4375,53.1406 C26.0156,52.7344 26.3438,52.2813 26.3438,51.8906 C26.3438,51.4375 25.9531,51.0469 25.4844,51.0469 C25.2656,51.0469 25.0625,51.125 24.875,51.3125 C24.4219,51.7969 24.4219,51.7969 24.2344,51.8906 C23.8125,52.1563 23.125,52.2813 22.3594,52.2813 C20.3125,52.2813 19.0156,51.1875 19.0156,49.4844 L19.0156,48.3906 C19.0156,46.6094 20.2656,45.2969 22,45.2969 C22.5781,45.2969 23.1875,45.4531 23.6563,45.7031 C24.1406,45.9844 24.3125,46.2031 24.4063,46.6094 C24.4688,47.0156 24.5,47.1406 24.6406,47.2656 C24.7813,47.4063 25.0156,47.5156 25.2344,47.5156 C25.5,47.5156 25.7656,47.375 25.9375,47.1563 C26.0469,47 26.0781,46.8125 26.0781,46.3906 L26.0781,44.9688 C26.0781,44.5313 26.0625,44.4063 25.9688,44.25 C25.8125,43.9844 25.5313,43.8438 25.2344,43.8438 C24.9375,43.8438 24.7344,43.9375 24.5156,44.25 L24.3438,44.1719 Z " fill="#000000"/><text fill="#000000" font-family="sans-serif" font-size="12" lengthAdjust="spacing" textLength="129" x="36" y="52.6543">getConsoleCommand</text><line style="stroke:#A80036;stroke-width:1.5;" x1="8" x2="167" y1="64.5" y2="64.5"/><line style="stroke:#A80036;stroke-width:1.5;" x1="8" x2="167" y1="72.5" y2="72.5"/><text fill="#000000" font-family="sans-serif" font-size="11" lengthAdjust="spacing" textLength="68" x="13" y="86.7104">void parse()</text><text fill="#000000" font-family="sans-serif" font-size="11" lengthAdjust="spacing" textLength="89" x="13" y="99.5151">void response()</text><!--MD5=[091850104cee874f6dee9836dd55a133]
class getStat--><rect codeLine="6" fill="#FEFECE" filter="url(#f1dxnipluzqxcj)" height="124.8281" id="getStat" style="stroke:#A80036;stroke-width:1.5;" width="189" x="203" y="7"/><ellipse cx="271.75" cy="23" fill="#ADD1B2" rx="11" ry="11" style="stroke:#A80036;stroke-width:1.0;"/><path d="M274.0938,18.6719 C273.1563,18.2344 272.5625,18.0938 271.6875,18.0938 C269.0625,18.0938 267.0625,20.1719 267.0625,22.8906 L267.0625,24.0156 C267.0625,26.5938 269.1719,28.4844 272.0625,28.4844 C273.2813,28.4844 274.4375,28.1875 275.1875,27.6406 C275.7656,27.2344 276.0938,26.7813 276.0938,26.3906 C276.0938,25.9375 275.7031,25.5469 275.2344,25.5469 C275.0156,25.5469 274.8125,25.625 274.625,25.8125 C274.1719,26.2969 274.1719,26.2969 273.9844,26.3906 C273.5625,26.6563 272.875,26.7813 272.1094,26.7813 C270.0625,26.7813 268.7656,25.6875 268.7656,23.9844 L268.7656,22.8906 C268.7656,21.1094 270.0156,19.7969 271.75,19.7969 C272.3281,19.7969 272.9375,19.9531 273.4063,20.2031 C273.8906,20.4844 274.0625,20.7031 274.1563,21.1094 C274.2188,21.5156 274.25,21.6406 274.3906,21.7656 C274.5313,21.9063 274.7656,22.0156 274.9844,22.0156 C275.25,22.0156 275.5156,21.875 275.6875,21.6563 C275.7969,21.5 275.8281,21.3125 275.8281,20.8906 L275.8281,19.4688 C275.8281,19.0313 275.8125,18.9063 275.7188,18.75 C275.5625,18.4844 275.2813,18.3438 274.9844,18.3438 C274.6875,18.3438 274.4844,18.4375 274.2656,18.75 L274.0938,18.6719 Z " fill="#000000"/><text fill="#000000" font-family="sans-serif" font-size="12" lengthAdjust="spacing" textLength="43" x="292.25" y="27.1543">getStat</text><line style="stroke:#A80036;stroke-width:1.5;" x1="204" x2="391" y1="39" y2="39"/><text fill="#000000" font-family="sans-serif" font-size="11" lengthAdjust="spacing" textLength="86" x="209" y="53.2104">filePath : String</text><line style="stroke:#A80036;stroke-width:1.5;" x1="204" x2="391" y1="59.8047" y2="59.8047"/><text fill="#000000" font-family="sans-serif" font-size="11" lengthAdjust="spacing" textLength="64" x="209" y="74.0151">void save()</text><text fill="#000000" font-family="sans-serif" font-size="11" lengthAdjust="spacing" textLength="62" x="209" y="86.8198">void read()</text><text fill="#000000" font-family="sans-serif" font-size="11" lengthAdjust="spacing" textLength="76" x="209" y="99.6245">void update()</text><text fill="#000000" font-family="sans-serif" font-size="11" lengthAdjust="spacing" textLength="123" x="209" y="112.4292">Object getTasksStat()</text><text fill="#000000" font-family="sans-serif" font-size="11" lengthAdjust="spacing" textLength="177" x="209" y="125.2339">Pair&lt;int, int&gt; getOptimalTime()</text><!--MD5=[05cad2a36a34a1ce581f4cc0ecb9e307]
class changeTimer--><rect codeLine="17" fill="#FEFECE" filter="url(#f1dxnipluzqxcj)" height="137.6328" id="changeTimer" style="stroke:#A80036;stroke-width:1.5;" width="139" x="18" y="192"/><ellipse cx="46.05" cy="208" fill="#ADD1B2" rx="11" ry="11" style="stroke:#A80036;stroke-width:1.0;"/><path d="M48.3938,203.6719 C47.4563,203.2344 46.8625,203.0938 45.9875,203.0938 C43.3625,203.0938 41.3625,205.1719 41.3625,207.8906 L41.3625,209.0156 C41.3625,211.5938 43.4719,213.4844 46.3625,213.4844 C47.5813,213.4844 48.7375,213.1875 49.4875,212.6406 C50.0656,212.2344 50.3938,211.7813 50.3938,211.3906 C50.3938,210.9375 50.0031,210.5469 49.5344,210.5469 C49.3156,210.5469 49.1125,210.625 48.925,210.8125 C48.4719,211.2969 48.4719,211.2969 48.2844,211.3906 C47.8625,211.6563 47.175,211.7813 46.4094,211.7813 C44.3625,211.7813 43.0656,210.6875 43.0656,208.9844 L43.0656,207.8906 C43.0656,206.1094 44.3156,204.7969 46.05,204.7969 C46.6281,204.7969 47.2375,204.9531 47.7063,205.2031 C48.1906,205.4844 48.3625,205.7031 48.4563,206.1094 C48.5188,206.5156 48.55,206.6406 48.6906,206.7656 C48.8313,206.9063 49.0656,207.0156 49.2844,207.0156 C49.55,207.0156 49.8156,206.875 49.9875,206.6563 C50.0969,206.5 50.1281,206.3125 50.1281,205.8906 L50.1281,204.4688 C50.1281,204.0313 50.1125,203.9063 50.0188,203.75 C49.8625,203.4844 49.5813,203.3438 49.2844,203.3438 C48.9875,203.3438 48.7844,203.4375 48.5656,203.75 L48.3938,203.6719 Z " fill="#000000"/><text fill="#000000" font-family="sans-serif" font-size="12" lengthAdjust="spacing" textLength="78" x="62.95" y="212.1543">changeTimer</text><line style="stroke:#A80036;stroke-width:1.5;" x1="19" x2="156" y1="224" y2="224"/><text fill="#000000" font-family="sans-serif" font-size="11" lengthAdjust="spacing" textLength="78" x="24" y="238.2104">time : Integer</text><line style="stroke:#A80036;stroke-width:1.5;" x1="19" x2="156" y1="244.8047" y2="244.8047"/><text fill="#000000" font-family="sans-serif" font-size="11" lengthAdjust="spacing" textLength="127" x="24" y="259.0151">void setOptimalTime()</text><text fill="#000000" font-family="sans-serif" font-size="11" lengthAdjust="spacing" textLength="83" x="24" y="271.8198">void setTime()</text><text fill="#000000" font-family="sans-serif" font-size="11" lengthAdjust="spacing" textLength="61" x="24" y="284.6245">void start()</text><text fill="#000000" font-family="sans-serif" font-size="11" lengthAdjust="spacing" textLength="60" x="24" y="297.4292">void stop()</text><text fill="#000000" font-family="sans-serif" font-size="11" lengthAdjust="spacing" textLength="71" x="24" y="310.2339">void pause()</text><text fill="#000000" font-family="sans-serif" font-size="11" lengthAdjust="spacing" textLength="122" x="24" y="323.0386">void timeRemaining()</text><!--MD5=[2d630988811f221e678284d7ba095f3e]
link getConsoleCommand to getStat--><!--MD5=[2323294a47bbf2a149762f2dc59e97ad]
link getConsoleCommand to changeTimer--><!--MD5=[eac251bf7a6db4904af4a82467d3323a]
@startuml
class getConsoleCommand {
  void parse()
  void response()
}

class getStat {
   filePath : String

void save()
void read()
void update()
Object getTasksStat()
Pair<int, int> getOptimalTime()

}

class changeTimer {
time : Integer

void setOptimalTime()
void setTime()
void start()
void stop()
void pause()
void timeRemaining()

}
@enduml

PlantUML version 1.2021.4beta1(Unknown compile time)
(GPL source distribution)
Java Runtime: Java(TM) SE Runtime Environment
JVM: Java HotSpot(TM) 64-Bit Server VM
Default Encoding: UTF-8
Language: en
Country: US
--></g></svg>